<?xml version="1.0" standalone="no"?>
<!DOCTYPE svg PUBLIC "-//W3C//DTD SVG 20010904//EN"
 "http://www.w3.org/TR/2001/REC-SVG-20010904/DTD/svg10.dtd">
<svg version="1.0" xmlns="http://www.w3.org/2000/svg"
 width="700.000000pt" height="700.000000pt" viewBox="0 0 700.000000 700.000000"
 preserveAspectRatio="xMidYMid meet">
<metadata>
Created by potrace 1.14, written by Peter Selinger 2001-2017
</metadata>
<g transform="translate(0.000000,700.000000) scale(0.100000,-0.100000)"
fill="#000000" stroke="none">
<path d="M3739 6726 c-2 -2 -42 -7 -89 -10 -225 -18 -531 -81 -755 -157 -95
-32 -291 -111 -335 -134 -14 -7 -56 -29 -95 -48 -38 -20 -90 -47 -115 -61 -25
-14 -61 -34 -80 -45 -66 -36 -261 -171 -356 -247 -133 -106 -242 -208 -390
-365 -118 -126 -309 -387 -411 -564 -68 -116 -158 -303 -206 -425 -42 -108
-109 -307 -121 -361 -3 -13 -15 -62 -26 -109 -28 -121 -28 -122 -50 -260 -10
-69 -22 -165 -26 -215 -15 -168 -9 -494 11 -640 2 -16 7 -50 10 -75 3 -25 7
-55 9 -66 2 -12 7 -37 10 -55 11 -72 38 -188 66 -289 186 -672 563 -1251 1097
-1680 107 -87 269 -203 328 -236 11 -6 54 -31 95 -56 102 -61 275 -146 390
-192 52 -21 106 -42 120 -48 100 -40 374 -118 466 -134 16 -2 49 -9 74 -14 25
-5 63 -12 85 -15 22 -3 54 -7 70 -10 209 -32 620 -37 776 -10 13 2 49 6 79 9
30 3 64 8 75 10 11 2 40 7 65 11 140 22 478 113 575 154 11 5 58 24 105 41 81
31 280 125 365 173 187 104 423 272 583 414 37 33 81 72 97 86 17 15 24 27 18
28 -7 1 -16 2 -20 4 -5 1 -26 5 -48 9 -588 109 -1154 384 -1604 781 -55 48
-222 216 -269 270 -24 28 -54 61 -66 75 -57 64 -256 339 -256 354 0 3 -13 25
-30 49 -42 62 -151 275 -200 391 -41 95 -108 275 -115 306 -2 8 -4 15 -5 15
-1 0 -3 7 -5 15 -1 8 -12 47 -23 85 -36 127 -75 314 -87 420 -4 33 -9 62 -10
65 -2 3 -7 50 -11 105 -15 185 -9 572 10 672 3 12 7 47 11 79 7 65 39 231 62
319 8 33 16 67 18 75 15 68 93 305 125 378 6 12 14 32 19 45 31 77 162 337
213 421 114 190 249 372 395 532 76 84 84 98 56 100 -23 2 -120 15 -153 20
-34 6 -515 15 -521 10z"/>
</g>
</svg>
