<svg xmlns="http://www.w3.org/2000/svg" x="0px" y="0px" viewBox="0 0 661.7 98.8"
	style="enable-background:new 0 0 661.7 98.8" xml:space="preserve">
	<path
		d="M661.7,1.4C656.6,0.5,651.2,0,645.6,0c-18.3,0-34.8,5.1-46.4,13.4c-9.9-2-20.9-2.5-32.4-1c-9.7,1.2-18.8,3.6-26.9,7	C529.8,10,514.8,4.2,498,4.2c-11.6,0-22.4,2.8-31.3,7.6C455.2,4.5,439.7,0,422.7,0c-18.3,0-34.8,5.1-46.4,13.4	c-9.9-2-20.9-2.5-32.4-1c-9.7,1.2-18.8,3.6-26.9,7C306.9,10,291.9,4.2,275.1,4.2c-10.9,0-21,2.5-29.6,6.8C234.1,4.1,219.2,0,202.8,0	c-18.3,0-34.8,5.1-46.4,13.4c-9.9-2-20.9-2.5-32.4-1c-9.7,1.2-18.8,3.6-26.9,7C87,10,72,4.2,55.2,4.2c-1,0-2.1,0-3.1,0.1	c-1-0.1-2.1-0.1-3.1-0.1c-9.4,0-18.3,1.8-26,5.1C16.3,5.7,8.5,3,0,1.5v83.4C5,84,9.8,82.6,14.3,81c9.5,6,21.6,9.6,34.7,9.6	c1,0,2,0,3.1-0.1c1,0.1,2.1,0.1,3.1,0.1c7.8,0,15.2-1.3,21.9-3.6c13.7,9.3,34.7,13.8,57.4,11c16.6-2,31.4-7.6,42.4-15.3	c7.9,2.4,16.6,3.7,25.9,3.7c12.9,0,25-2.6,35.1-7c9.8,7,22.8,11.2,37.2,11.2c7.8,0,15.2-1.3,21.9-3.6c13.7,9.3,34.7,13.8,57.4,11	c16.6-2,31.4-7.6,42.4-15.3c7.9,2.4,16.6,3.7,25.9,3.7c13.8,0,26.6-2.9,37-7.9c9.9,7.5,23.4,12.1,38.4,12.1c7.8,0,15.2-1.3,21.9-3.6	c13.7,9.3,34.7,13.8,57.4,11c16.6-2,31.4-7.6,42.4-15.3c7.9,2.4,16.6,3.7,25.9,3.7c5.5,0,11-0.5,16.1-1.4V1.4z" />
</svg>